<mxfile host="app.diagrams.net" modified="2023-10-27T11:35:00.000Z" agent="Gemini" etag="unique-etag-11223" version="22.0.8" type="device">
  <diagram name="Use Case - Đăng ký" id="diagram-2">
    <mxGraphModel dx="1056" dy="742" grid="1" gridSize="10" guides="1" tooltips="1" connect="1" arrows="1" fold="1" page="1" pageScale="1" pageWidth="1169" pageHeight="827" math="0" shadow="0">
      <root>
        <mxCell id="0" />
        <mxCell id="1" parent="0" />
        <mxCell id="2" value="Người dùng" style="shape=umlActor;verticalLabelPosition=bottom;verticalAlign=top;html=1;outlineConnect=0;" vertex="1" parent="1">
          <mxGeometry x="120" y="340" width="30" height="60" as="geometry" />
        </mxCell>
        <mxCell id="3" value="Hệ thống UniPlan" style="swimlane;fontStyle=1;align=center;verticalAlign=top;childLayout=stackLayout;horizontal=1;startSize=26;horizontalStack=0;resizeParent=1;resizeParentMax=0;resizeLast=0;collapsible=0;marginBottom=0;rounded=1;" vertex="1" parent="1">
          <mxGeometry x="240" y="80" width="680" height="600" as="geometry">
            <mxRectangle x="240" y="80" width="140" height="26" as="alternateBounds" />
          </mxGeometry>
        </mxCell>
        <mxCell id="4" value="Đăng ký tài khoản" style="ellipse;whiteSpace=wrap;html=1;" vertex="1" parent="3">
          <mxGeometry x="240" y="260" width="160" height="80" as="geometry" />
        </mxCell>
        <mxCell id="5" value="Kiểm tra tính hợp lệ của thông tin" style="ellipse;whiteSpace=wrap;html=1;" vertex="1" parent="3">
          <mxGeometry x="480" y="40" width="140" height="70" as="geometry" />
        </mxCell>
        <mxCell id="6" value="Kiểm tra email tồn tại" style="ellipse;whiteSpace=wrap;html=1;" vertex="1" parent="3">
          <mxGeometry x="480" y="140" width="140" height="70" as="geometry" />
        </mxCell>
        <mxCell id="7" value="Tạo tài khoản" style="ellipse;whiteSpace=wrap;html=1;" vertex="1" parent="3">
          <mxGeometry x="480" y="380" width="140" height="70" as="geometry" />
        </mxCell>
        <mxCell id="8" value="Hiển thị thông báo lỗi" style="ellipse;whiteSpace=wrap;html=1;" vertex="1" parent="3">
          <mxGeometry x="480" y="260" width="140" height="70" as="geometry" />
        </mxCell>
        <mxCell id="9" value="Thông báo đăng ký thành công" style="ellipse;whiteSpace=wrap;html=1;" vertex="1" parent="3">
          <mxGeometry x="480" y="490" width="140" height="70" as="geometry" />
        </mxCell>
        <mxCell id="10" value="" style="endArrow=none;html=1;rounded=0;" edge="1" parent="1" source="2" target="4">
          <mxGeometry width="50" height="50" relative="1" as="geometry">
            <mxPoint x="180" y="370" as="sourcePoint" />
            <mxPoint x="490" y="210" as="targetPoint" />
          </mxGeometry>
        </mxCell>
        <mxCell id="11" value="&lt;div&gt;&amp;lt;&amp;lt;include&amp;gt;&amp;gt;&lt;/div&gt;" style="endArrow=open;endSize=12;dashed=1;html=1;rounded=0;" edge="1" parent="1" source="4" target="5">
          <mxGeometry width="100" height="100" relative="1" as="geometry">
            <mxPoint x="410" y="250" as="sourcePoint" />
            <mxPoint x="560" y="100" as="targetPoint" />
          </mxGeometry>
        </mxCell>
        <mxCell id="12" value="&lt;div&gt;&amp;lt;&amp;lt;include&amp;gt;&amp;gt;&lt;/div&gt;" style="endArrow=open;endSize=12;dashed=1;html=1;rounded=0;" edge="1" parent="1" source="4" target="6">
          <mxGeometry width="100" height="100" relative="1" as="geometry">
            <mxPoint x="410" y="270" as="sourcePoint" />
            <mxPoint x="560" y="120" as="targetPoint" />
          </mxGeometry>
        </mxCell>
        <mxCell id="13" value="&lt;div&gt;&amp;lt;&amp;lt;include&amp;gt;&amp;gt;&lt;/div&gt;" style="endArrow=open;endSize=12;dashed=1;html=1;rounded=0;" edge="1" parent="1" source="4" target="8">
          <mxGeometry width="100" height="100" relative="1" as="geometry">
            <mxPoint x="410" y="290" as="sourcePoint" />
            <mxPoint x="490" y="185" as="targetPoint" />
          </mxGeometry>
        </mxCell>
        <mxCell id="14" value="&lt;div&gt;&amp;lt;&amp;lt;include&amp;gt;&amp;gt;&lt;/div&gt;" style="endArrow=open;endSize=12;dashed=1;html=1;rounded=0;" edge="1" parent="1" source="4" target="7">
          <mxGeometry width="100" height="100" relative="1" as="geometry">
            <mxPoint x="410" y="310" as="sourcePoint" />
            <mxPoint x="560" y="295" as="targetPoint" />
          </mxGeometry>
        </mxCell>
        <mxCell id="15" value="&lt;div&gt;&amp;lt;&amp;lt;include&amp;gt;&amp;gt;&lt;/div&gt;" style="endArrow=open;endSize=12;dashed=1;html=1;rounded=0;" edge="1" parent="1" source="7" target="9">
          <mxGeometry width="100" height="100" relative="1" as="geometry">
            <mxPoint x="550" y="460" as="sourcePoint" />
            <mxPoint x="550" y="480" as="targetPoint" />
          </mxGeometry>
        </mxCell>
      </root>
    </mxGraphModel>
  </diagram>
</mxfile>
